<?xml version="1.0" encoding="utf-8"?>
<!-- Generator: Adobe Illustrator 26.2.1, SVG Export Plug-In . SVG Version: 6.00 Build 0)  -->
<svg version="1.1" id="Layer_1" xmlns="http://www.w3.org/2000/svg" xmlns:xlink="http://www.w3.org/1999/xlink" x="0px" y="0px"
	 viewBox="0 0 211.36 143.18" style="enable-background:new 0 0 211.36 143.18;" xml:space="preserve">
<g>
	<path d="M186.28,52.18c-0.08,0.12-0.47,0.68-0.55,0.8c-0.32,0.51-0.62,1.04-0.94,1.55c-0.25,0.4-0.53,0.79-0.79,1.18
		c-0.03,0.05-0.06,0.1-0.09,0.15c-0.29,0.49-0.57,0.99-0.88,1.47c-0.25,0.4-0.54,0.78-0.81,1.17c-0.12,0.16-0.24,0.33-0.36,0.49
		c-0.31,0.4-0.6,0.83-0.96,1.2c-0.41,0.43-0.87,0.81-1.32,1.19c-0.19,0.16-0.44,0.25-0.61,0.42c-0.27,0.27-0.66,0.32-0.95,0.54
		c-0.06,0.04-0.16,0.02-0.24,0.03c-0.57,0.04-1.15,0.08-1.72,0.12c-0.26,0.02-0.48-0.09-0.62-0.36c0.01-0.02,0.02-0.05,0.03-0.06
		c0.36-0.29,0.72-0.59,1.07-0.88c0.5-0.4,1.02-0.79,1.5-1.22c0.34-0.31,0.75-0.54,1.03-0.92c0.31-0.42,0.67-0.8,1-1.2
		c0.05-0.06,0.09-0.14,0.13-0.21c0.22-0.41,0.46-0.81,0.66-1.22c0.24-0.49,0.46-0.99,0.66-1.5c0.17-0.43,0.29-0.88,0.43-1.32
		c0.16-0.49,0.27-0.99,0.28-1.5c0.02-0.84-0.2-1.6-0.76-2.25c-0.55-0.63-1.26-1.04-1.98-1.43c-0.14-0.08-0.3-0.15-0.46-0.19
		c-0.51-0.13-1.01-0.25-1.53-0.35c-0.27-0.05-0.54-0.03-0.81-0.05c-0.49-0.03-0.97,0.03-1.44,0.12c-0.33,0.06-0.67,0.15-0.98,0.28
		c-0.37,0.15-0.72,0.36-1.09,0.54c-0.75,0.37-1.27,0.99-1.75,1.65c-0.31,0.43-0.55,0.92-0.86,1.36c-0.6,0.87-1.05,1.8-1.27,2.84
		c-0.16,0.76-0.27,1.54-0.44,2.3c-0.13,0.62-0.12,1.25-0.16,1.88c-0.01,0.22-0.02,0.43-0.02,0.64c-0.75,1.32-1.69,2.1-2.54,1.98
		c-0.21-0.03-0.29-0.22-0.31-0.42c-0.04-0.43-0.11-0.86-0.12-1.29c-0.01-0.57,0.01-1.14,0.04-1.7c0.04-0.61,0.12-1.23,0.16-1.84
		c0.04-0.65,0.05-1.3,0.07-1.95c0.01-0.1,0.01-0.19,0.02-0.29c0.08-0.81,0.16-1.62,0.24-2.43c0.08-0.82-0.2-1.54-0.69-2.17
		c-0.27-0.35-0.6-0.66-0.95-0.93c-0.31-0.23-0.66-0.41-1.08-0.41c-0.49,0.01-0.98,0.04-1.46,0.18c-0.5,0.14-0.91,0.44-1.31,0.75
		c-0.74,0.59-1.39,1.27-1.94,2.02c-0.27,0.37-0.52,0.74-0.81,1.09c-0.03,0.04-0.04,0.09-0.07,0.13c-0.36,0.51-1.19,2.82-1.41,2.23
		c-0.17-0.44-0.14-0.91-0.14-1.13c-0.03-1.03-0.2-2.03-0.66-2.97c-0.23-0.48-0.61-0.81-1.01-1.11c-0.24-0.19-0.56-0.29-0.86-0.39
		c-0.54-0.18-1.04-0.02-1.53,0.21c-0.46,0.22-1.11,0.53-1.64,0.83c-0.29,0.16-0.42,0.49-0.34,0.81c0.36,1.37,0.69,3.45,0.76,5.51
		c-1.05,0.51-2.33,0.54-3.83-0.17c-0.24-2.03-1.06-3.37-1.06-3.37c-0.12-0.16-0.2-0.35-0.34-0.49c-0.59-0.62-1.18-1.24-1.8-1.83
		c-0.32-0.3-0.9-0.72-1.29-0.93c-0.71-0.38-1.43-0.71-2.24-0.85c-0.46-0.08-0.91-0.12-1.36-0.01c-0.4,0.09-0.77,0.26-1.16,0.39
		c-0.48,0.16-0.89,0.46-1.3,0.73c-0.32,0.21-0.6,0.46-0.88,0.73c-0.21,0.2-0.46,0.39-0.64,0.63c-0.27,0.35-0.54,0.7-0.81,1.06
		c-0.41,0.62-0.76,1.22-1.05,1.81c-0.14,0.13-0.27,0.29-0.37,0.49c-0.24,0.49-0.38,1.01-0.53,1.53c-0.1,0.34-0.18,0.69-0.28,1.04
		c-0.07,0.23-0.17,0.45-0.21,0.69c-0.15,0.83-0.37,2.99-0.97,3.88c-0.34,0.5-0.82,0.95-1.7,0.88c-0.92-0.07-1.04-2.07-1.18-3.1
		c-0.14-0.98-0.12-2.25-0.03-3.22c0.33-3.52,0.39-5.4,1.3-8.3c0.18-0.56,0.34-1.12,0.51-1.68c0.06-0.18,0.77-0.23,1.05-0.27
		c0.44-0.07,47.79-0.71,48.6-1.06c0.61-0.26,0.94-0.81,0.75-1.43c-0.14-0.46-0.25-0.86-0.46-1.32c-0.24-0.52-0.28-0.73-0.79-1.08
		c-0.29-0.2-1.08-0.03-1.5-0.03c-0.84,0.03-45.77,0.7-46.32,0.78c-0.86,0.12-0.91-0.41-1.43-1.27c-0.23-0.38-0.49-0.73-0.78-1.06
		c-0.39-0.44-0.87-0.67-1.47-0.61c-0.14,0.01-0.29,0.08-0.41,0.15c-0.54,0.31-0.88,0.84-1.31,1.28c-0.05,0.05-0.08,0.14-0.11,0.22
		c-0.07,0.23-0.13,0.46-0.19,0.7c-0.12,0.45-0.4,0.66-0.88,0.64c-0.12,0-0.23,0-0.35,0.01c-0.96,0.09-1.87,0.08-3.1,0.26
		c-0.72,0.11-3.04,0.14-3.33,0.39c-1.55,0.69,0.68,4.18,1.99,4.06c0.55-0.05,4.37-0.35,4.57,0.05c-0.15,0.61-0.72,2.25-0.95,3.36
		c-0.21,1.02-0.37,2.26-0.48,3.56c-0.22,0.38-0.39,0.67-0.44,0.77c-0.14,0.26-0.28,0.52-0.43,0.78c-0.31,0.55-0.63,1.1-0.94,1.65
		c-0.03,0.06-0.58,0.99-0.82,1.4c-0.12,0.2-0.23,0.4-0.35,0.6c-0.09,0.16-0.18,0.32-0.38,0.36c-0.16-0.05-0.24-0.15-0.23-0.31
		c0.01-0.07-0.45-2.32-0.76-3.35c-0.18-0.61-0.38-1.2-0.62-1.79c-0.22-0.55-0.35-1.13-0.52-1.7c-0.2-0.68-0.39-1.37-0.71-2.01
		c-0.23-0.47-0.6-0.81-0.97-1.16c-0.23-0.23-0.51-0.3-0.78-0.31c-0.7-0.02-1.37,0.2-1.92,0.61c-0.44,0.32-2.01,2.32-2.43,2.89
		c-0.42,0.59-1.47,1.96-1.54,2.08c-0.31,0.5-1.43,2.27-1.68,2.65c-0.03,0.05-0.63,1.11-0.94,1.57c-0.49,0.75-2.26,5-2.97,3.7
		c-0.39-0.69-0.53-1.79-0.64-2.54c-0.14-0.98-0.12-2.25-0.03-3.22c0.33-3.51,0.39-5.4,1.3-8.3c0.18-0.56,0.34-1.12,0.51-1.68
		c0.06-0.18,0.77-0.23,1.05-0.27c0.44-0.07,3.87-0.24,4.68-0.59c0.61-0.26,0.94-0.81,0.75-1.43c-0.14-0.46-0.25-0.86-0.46-1.32
		c-0.24-0.52-0.28-0.73-0.79-1.08c-0.29-0.2-1.11-0.02-1.44,0.04c-0.8,0.15-1.91,0.17-2.46,0.25c-0.86,0.12-0.91-0.41-1.43-1.27
		c-0.23-0.38-0.49-0.73-0.78-1.06c-0.39-0.44-0.87-0.67-1.47-0.61c-0.14,0.01-0.29,0.08-0.41,0.15c-0.54,0.31-0.88,0.84-1.31,1.28
		c-0.05,0.05-0.08,0.14-0.11,0.22c-0.07,0.23-0.13,0.46-0.19,0.7c-0.12,0.45-0.4,0.66-0.88,0.64c-0.12,0-0.23,0-0.35,0.01
		c-0.96,0.09-1.87,0.08-3.1,0.26c-0.72,0.11-3.04,0.14-3.33,0.39c-1.55,0.69,0.68,4.18,1.99,4.06c0.55-0.05,4.37-0.35,4.57,0.05
		c-0.15,0.61-0.72,2.25-0.95,3.36c-0.2,0.99-0.36,2.18-0.47,3.43c-0.26,0.42-0.51,0.85-0.77,1.26c-0.25,0.4-0.53,0.79-0.79,1.18
		c-0.03,0.05-0.06,0.1-0.09,0.15c-0.29,0.49-0.57,0.99-0.88,1.47c-0.25,0.4-0.54,0.78-0.81,1.17c-0.12,0.16-0.24,0.33-0.36,0.49
		c-0.31,0.4-0.6,0.83-0.96,1.2c-0.41,0.43-0.87,0.81-1.32,1.19c-0.19,0.16-0.44,0.25-0.61,0.42c-0.27,0.27-0.66,0.32-0.95,0.54
		c-0.06,0.04-0.16,0.02-0.24,0.03c-0.57,0.04-1.15,0.08-1.72,0.12c-0.26,0.02-0.48-0.09-0.62-0.36c0.01-0.02,0.02-0.05,0.03-0.06
		c0.36-0.29,0.72-0.59,1.07-0.88c0.5-0.4,1.02-0.79,1.5-1.22c0.34-0.31,0.75-0.54,1.03-0.92c0.31-0.42,0.67-0.8,1-1.2
		c0.05-0.06,0.09-0.14,0.13-0.21c0.22-0.41,0.46-0.81,0.66-1.22c0.24-0.49,0.46-0.99,0.66-1.5c0.17-0.43,0.29-0.88,0.43-1.32
		c0.16-0.49,0.27-0.99,0.28-1.5c0.02-0.84-0.2-1.6-0.76-2.25c-0.55-0.63-1.26-1.04-1.98-1.43c-0.14-0.08-0.3-0.15-0.46-0.19
		c-0.51-0.13-1.01-0.25-1.53-0.35c-0.27-0.05-0.54-0.03-0.81-0.05c-0.49-0.03-0.97,0.03-1.44,0.12c-0.33,0.06-0.67,0.15-0.98,0.28
		c-0.37,0.15-0.72,0.36-1.09,0.54c-0.75,0.37-1.27,0.99-1.75,1.65c-0.31,0.43-0.55,0.92-0.86,1.36c-0.6,0.87-1.05,1.8-1.27,2.84
		c-0.16,0.75-0.27,1.51-0.43,2.27c-0.31,0.76-0.62,1.54-0.68,1.7c-0.78,1.87-1.96,3.05-2.99,2.91c-0.21-0.03-0.29-0.22-0.31-0.42
		c-0.04-0.43-0.11-0.86-0.12-1.29c-0.01-0.57,0.01-1.14,0.04-1.7c0.04-0.61,0.12-1.23,0.16-1.84c0.04-0.65,0.05-1.3,0.07-1.95
		c0.01-0.1,0.01-0.19,0.02-0.29c0.08-0.81,0.16-1.62,0.24-2.43c0.08-0.82-0.2-1.54-0.69-2.17c-0.27-0.35-0.6-0.66-0.95-0.93
		c-0.31-0.23-0.66-0.41-1.08-0.4c-0.49,0.01-0.98,0.04-1.46,0.17c-0.5,0.14-0.91,0.44-1.31,0.75c-0.73,0.59-1.39,1.27-1.94,2.02
		c-0.27,0.37-0.52,0.74-0.81,1.09c-0.03,0.04-0.04,0.09-0.07,0.13c-0.22,0.32-0.62,1.32-0.95,1.9c0.4-2.97,0.86-5.95,1.07-6.86
		c0.22-0.96,1.19-8.55,1.25-9.15c0.05-0.54,0.39-2.14-0.56-2.39c-3.33-0.87-6.04-0.8-8.13,0.27c-1.38,0.71-2.21,1.79-2.78,3.22
		c-1.35,3.38-2.77,6.73-4.22,10.07c-0.84,1.93-1.73,3.83-2.94,6.06c-0.39-1.35-0.63-2.18-0.88-3c-1.37-4.47-0.61-5.03-1.95-9.51
		c-0.71-2.38-2.08-3.24-5.1-2.53c-1.32,0.31-2.52,1.87-3.04,3.52c-1.35,3.38-0.6,1.95-2.05,5.29c-0.84,1.93-1.73,3.83-2.94,6.06
		c-0.39-1.35-0.63-2.18-0.88-3c-1.37-4.47-2.78-8.94-4.12-13.42c-0.71-2.38-2.08-3.24-5.1-2.53c-1.32,0.31-2.58,1.02-3.4,2.6
		c0.92,1.95,2.02,3.75,2.64,5.7c1.95,6.1,3.91,12.21,5.46,18.41c0.64,2.58,2,3.86,4.24,4.69c2.83,1.05,4.05,0.35,4.92-2.6
		c0.61-2.05,1.29-4.07,2.15-6.03c0.83-1.89,1.55-3.56,2.25-5.19c0.81,2.94,1.53,5.83,2.39,9.29c0.64,2.58,2,3.86,4.24,4.69
		c2.83,1.05,4.05,0.35,4.92-2.6c0.61-2.05,1.29-4.07,2.15-6.03c2-4.55,4.14-9.04,6.23-13.56c-0.04,0.29-0.07,0.58-0.11,0.88
		c0,0,0,0,0,0c0,0,0,0,0,0c-0.18,1.48-0.37,3.02-0.54,4.47c-0.31,2.47-0.67,5.35-0.86,7c-0.17,1.44-0.31,2.74-0.42,4.58c0,0,0,0,0,0
		c-0.03,0.26-0.05,0.52-0.08,0.78c-0.07,0.49-0.17,0.97-0.23,1.46c-0.07,0.65-0.09,1.31,0.15,1.94c0.2,0.51,0.49,0.91,1.05,1.11
		c0.43,0.15,0.84,0.16,1.27,0.15c1.72-0.02,2.19-0.17,2.84-1.72c0.24-0.58,0.58-1.1,0.78-1.7c0.22-0.65,1.9-5.25,2.01-5.47
		c0.24-0.47,0.92-1.93,1.17-2.4c0.07-0.13,0.13-0.27,0.37-0.27c0.05,0.1,0.14,0.21,0.15,0.33c0.03,0.23-0.11,0.9-0.19,1.68
		c-0.06,0.56-0.21,3.57-0.03,4.48c0.13,0.63,0.25,1.25,0.43,1.87c0.12,0.42,0.36,0.81,0.5,1.23c0.19,0.55,0.59,0.91,1.04,1.21
		c0.74,0.5,1.6,0.69,2.47,0.78c0.26,0.03,0.53-0.02,0.79-0.07c1.82-0.31,4.65-3.05,5.06-3.43c0.14-0.13,0.3-0.3,0.46-0.49
		c0.4,0.6,0.89,1.16,1.46,1.71c0.4,0.39,0.89,0.67,1.34,0.99c0.1,0.07,0.2,0.13,0.31,0.18c0.48,0.25,0.96,0.46,1.49,0.56
		c0.37,0.07,0.73,0.21,1.1,0.23c0.64,0.03,1.27,0.16,1.92,0.01c0.47-0.11,0.97-0.11,1.43-0.26c0.64-0.21,1.25-0.51,1.87-0.78
		c0.45-0.19,0.86-0.46,1.26-0.73c0.32-0.21,0.66-0.39,0.93-0.65c0.86-0.84,1.79-1.62,2.43-2.67c0.08-0.11,0.15-0.22,0.23-0.32
		c0,0,0,0.01,0,0.01c0.46,2.19,2.72,5.2,3.64,5.49c0.94,0.29,1.25,0.41,2.63,0.35c1.86-0.08,3.94-2.09,5.22-4.15
		c0.25,0.41,0.5,0.87,0.63,1.07c0.34,0.54,0.68,1.07,1.1,1.55c0.47,0.55,1.41,1.41,2.25,1.47c0.45,0.03,0.89,0.07,1.34,0.06
		c0.34-0.01,0.69-0.05,1.02-0.13c0.27-0.07,0.52-0.24,0.78-0.33c0.55-0.18,1.03-0.5,1.53-0.8c0.91-0.56,1.62-1.32,2.31-2.11
		c0.25-0.28,0.43-0.64,0.7-0.9c0.55-0.54,0.92-1.21,1.38-1.82c0.17-0.23,0.32-0.47,0.47-0.71c0.05,0.33,0.09,0.64,0.15,0.93
		c0.46,2.19,2.72,5.2,3.64,5.49c0.94,0.29,1.83,0.51,3.2,0.32c1.37-0.19,2.58-0.86,3.08-1.77c0.01-0.02,0.02-0.04,0.04-0.06
		c0.27-0.28,0.55-0.65,0.82-1.08c0.4,0.59,0.71,0.91,0.71,0.91l0,0.01c0.18,0.16,0.37,0.32,0.54,0.48c0.5,0.48,1.07,0.86,1.67,1.18
		c0.26,0.14,0.54,0.25,0.83,0.3c0.71,0.13,1.43,0.09,2.14,0.05c0.74-0.05,1.47-0.21,2.17-0.48c0.49-0.18,0.94-0.48,1.33-0.83
		c0.44-0.39,0.9-0.76,1.26-1.22c0.22-0.27,0.46-0.54,0.62-0.84c0.31-0.57,0.6-1.14,0.85-1.74c0.4-0.97,0.6-1.98,0.8-2.99
		c1.7,0.43,2.64,0.72,3.66,0.65c0.18-0.01,0.37-0.03,0.57-0.07c-0.03,0.31-0.06,0.61-0.12,0.91c-0.06,0.32-0.09,0.64-0.13,0.96
		c0,0,0,0,0,0c-0.03,0.26-0.05,0.52-0.08,0.79c-0.07,0.49-0.17,0.97-0.23,1.46c-0.07,0.65-0.09,1.31,0.15,1.94
		c0.2,0.51,0.49,0.91,1.05,1.11c0.43,0.15,0.85,0.11,1.27,0.15c0.37,0.03,0.71,0,1.02-0.23c0.05-0.04,0.11-0.05,0.17-0.06
		c0.76-0.24,1.33-0.69,1.65-1.42c0.25-0.57,0.58-1.1,0.78-1.7c0.22-0.65,1.9-5.25,2.01-5.47c0.24-0.47,0.92-1.93,1.17-2.4
		c0.07-0.13,0.13-0.27,0.37-0.27c0.05,0.1,0.14,0.21,0.15,0.33c0.03,0.23-0.11,0.9-0.19,1.68c-0.06,0.56-0.21,3.57-0.03,4.48
		c0.13,0.63,0.25,1.25,0.43,1.87c0.12,0.42,0.36,0.81,0.5,1.23c0.19,0.55,0.59,0.91,1.04,1.21c0.74,0.5,1.6,0.69,2.47,0.78
		c0.26,0.03,0.53-0.02,0.79-0.07c1.71-0.29,4.31-2.73,4.96-3.33c0.32,0.41,0.68,0.8,1.08,1.19c0.4,0.39,0.89,0.67,1.34,0.99
		c0.1,0.07,0.2,0.13,0.31,0.18c0.48,0.25,0.96,0.46,1.49,0.56c0.37,0.07,0.73,0.21,1.1,0.23c0.64,0.03,1.27,0.16,1.92,0.01
		c0.47-0.11,0.97-0.11,1.43-0.26c0.64-0.21,1.25-0.51,1.87-0.78c0.45-0.19,0.86-0.46,1.26-0.73c0.32-0.21,0.66-0.39,0.93-0.65
		c0.86-0.84,1.79-1.62,2.43-2.67c0.83-1.2,1.45-1.67,1.76-2.77c0.1-0.37,0.66-1.41,0.84-1.77c0.24-0.48,0.41-0.54,0.65-1.03
		C190.47,53.76,187.16,50.77,186.28,52.18z M86.17,58.26c-0.19-0.58-0.15-1.47-0.14-1.7c0.04-0.83,0.41-1.34,0.72-2.12
		c0.19-0.47,0.48-0.87,0.79-1.26c0.17-0.21,0.45-0.33,0.68-0.5c0.13,0.02,0.25,0.03,0.36,0.06c0.38,0.11,0.74,0.26,0.77,0.66
		c0.05,0.66-0.13,1.25-0.44,1.81c-0.34,0.62-0.71,1.06-1.1,1.65C87.61,57.18,86.53,58.11,86.17,58.26z M114.94,61.89
		c-0.05,0.38-0.38,1.17-1.24,1.17c-1.21,0-2.19-1.76-2.37-2.14c-0.14-0.3-0.1-0.69-0.09-0.99c0-0.37,0.65-2.02,0.86-2.53
		c0.02-0.05,0.05-0.1,0.08-0.15c0.17-0.27,0.33-0.54,0.5-0.8c0.14-0.22,0.31-0.43,0.53-0.58c0.25,0.11,0.48,0.28,0.62,0.48
		c0.44,0.62,0.9,2.58,0.99,3.4C114.86,60.16,114.96,61.75,114.94,61.89z M141.75,58.79c-0.1,0.63-0.17,1.27-0.38,1.87
		c-0.33,0.96-0.98,1.74-2,2.24c-0.81,0.02-1.05-0.18-1.4-0.87c-0.32-0.62-0.47-1.27-0.53-1.92c-0.05-0.59,0.04-1.2,0.15-1.8
		c0.09-0.48,0.26-0.95,0.46-1.4c0.27-0.6,0.54-1.21,1-1.73c0.1-0.11,0.23-0.19,0.41-0.33c0.11,0.18,0.24,0.29,0.26,0.42
		c0.23,1.17,0.77,2.17,1.93,2.73C141.93,58.29,141.79,58.55,141.75,58.79z M173.86,58.26c-0.19-0.58-0.15-1.47-0.14-1.7
		c0.04-0.83,0.41-1.34,0.72-2.12c0.19-0.47,0.48-0.87,0.79-1.26c0.17-0.21,0.45-0.33,0.68-0.5c0.13,0.02,0.25,0.03,0.36,0.06
		c0.38,0.11,0.74,0.26,0.77,0.66c0.05,0.66-0.13,1.25-0.44,1.81c-0.34,0.62-0.71,1.06-1.1,1.65
		C175.31,57.18,174.23,58.11,173.86,58.26z"/>
	<path d="M74.01,83.41c-0.03-1.11-0.46-2.16-1.2-2.9c-0.1-0.1-0.21-0.2-0.33-0.29c0.64-0.67,1.01-1.58,1.04-2.54
		c0-0.02,0.01-0.04,0.01-0.06c0-0.01,0-0.03,0-0.04c0-0.01,0-0.03,0-0.04c0-0.02,0-0.04-0.01-0.06c-0.03-0.98-0.42-1.92-1.09-2.59
		c-0.54-0.54-1.54-1.19-3.24-1.19h-3.84c-0.61,0-1.1,0.49-1.1,1.1v11.9c0,0.61,0.49,1.1,1.1,1.1h4.1c1.74,0,2.79-0.68,3.35-1.25
		c0.74-0.74,1.17-1.79,1.2-2.9c0-0.02,0.01-0.04,0.01-0.06c0-0.02,0-0.03,0-0.05c0-0.02,0-0.03,0-0.05
		C74.02,83.45,74.02,83.43,74.01,83.41z M66.46,75.88h2.74c0.76,0,1.33,0.18,1.69,0.55c0.4,0.4,0.45,0.91,0.45,1.14
		c0,0.23-0.06,0.74-0.45,1.14c-0.36,0.36-0.93,0.55-1.69,0.55h-2.74V75.88z M71.26,84.98c-0.4,0.4-1,0.6-1.8,0.6h-3v-4.13h3
		c0.8,0,1.4,0.2,1.8,0.6c0.35,0.35,0.56,0.9,0.56,1.46C71.82,84.09,71.61,84.63,71.26,84.98z"/>
	<path d="M85.78,75.88c0.61,0,1.1-0.49,1.1-1.1c0-0.61-0.49-1.1-1.1-1.1h-7.66c-0.61,0-1.1,0.49-1.1,1.1v11.9
		c0,0.61,0.49,1.1,1.1,1.1h7.66c0.61,0,1.1-0.49,1.1-1.1s-0.49-1.1-1.1-1.1h-6.56V81.1h4.53c0.61,0,1.1-0.49,1.1-1.1
		c0-0.61-0.49-1.1-1.1-1.1h-4.53v-3.03H85.78z"/>
	<path d="M98.27,75.88c0.61,0,1.1-0.49,1.1-1.1c0-0.61-0.49-1.1-1.1-1.1h-7.66c-0.61,0-1.1,0.49-1.1,1.1v11.9
		c0,0.61,0.49,1.1,1.1,1.1h7.66c0.61,0,1.1-0.49,1.1-1.1s-0.49-1.1-1.1-1.1h-6.56V81.1h4.53c0.61,0,1.1-0.49,1.1-1.1
		c0-0.61-0.49-1.1-1.1-1.1h-4.53v-3.03H98.27z"/>
	<path d="M109.77,81.58c0.47-0.23,0.82-0.51,1.08-0.77c0.72-0.72,1.14-1.73,1.17-2.79c0-0.02,0.01-0.04,0.01-0.06
		c0-0.02,0-0.03,0-0.05s0-0.03,0-0.05c0-0.02,0-0.04-0.01-0.06c-0.03-1.06-0.45-2.07-1.17-2.79c-0.58-0.59-1.66-1.28-3.51-1.28
		h-4.25c-0.61,0-1.1,0.49-1.1,1.1c0,0.05,0.01,0.11,0.02,0.16c-0.01,0.05-0.02,0.11-0.02,0.16v11.9c0,0.61,0.49,1.1,1.1,1.1
		s1.1-0.49,1.1-1.1V82.1h3.15c0.07,0,0.14,0,0.21,0l2.98,5.48c0.2,0.37,0.58,0.57,0.96,0.57c0.18,0,0.36-0.04,0.52-0.13
		c0.53-0.29,0.73-0.95,0.44-1.49L109.77,81.58z M107.35,79.9h-3.15v-3.97h3.15c0.87,0,1.53,0.21,1.95,0.64
		c0.47,0.47,0.53,1.08,0.54,1.35c0,0.27-0.07,0.88-0.54,1.35C108.88,79.69,108.22,79.9,107.35,79.9z"/>
	<path d="M131.84,81.37c-0.6-0.09-1.16,0.33-1.24,0.93c-0.3,2.06-1.48,3.29-3.17,3.29c-2.01,0-3.65-2.18-3.65-4.85
		s1.64-4.85,3.65-4.85c1.85,0,2.76,1.46,3,2.82c0.1,0.6,0.67,1,1.27,0.89c0.6-0.1,1-0.67,0.89-1.27c-0.4-2.31-2.15-4.63-5.16-4.63
		c-3.22,0-5.84,3.16-5.84,7.04c0,3.88,2.62,7.04,5.84,7.04c2.12,0,4.79-1.35,5.34-5.17C132.86,82.01,132.44,81.46,131.84,81.37z"/>
	<path d="M141.09,73.84c-3.32,0-6.02,3.09-6.02,6.89s2.7,6.89,6.02,6.89c3.32,0,6.02-3.09,6.02-6.89S144.41,73.84,141.09,73.84z
		 M141.09,85.43c-2.11,0-3.83-2.11-3.83-4.7s1.72-4.7,3.83-4.7c2.11,0,3.83,2.11,3.83,4.7S143.2,85.43,141.09,85.43z"/>
	<circle cx="149.3" cy="86.74" r="0.85"/>
	<path d="M125.24,112.28c-2.26,0-4.1,2.26-4.1,5.03s1.84,5.03,4.1,5.03c2.26,0,4.1-2.26,4.1-5.03S127.5,112.28,125.24,112.28z"/>
	<path d="M96.26,112.85c-0.45-0.45-1.15-0.68-2.09-0.68h-3.38v4.26h3.38c0.94,0,1.64-0.23,2.09-0.68c0.5-0.51,0.57-1.16,0.57-1.44
		C96.83,114.01,96.76,113.36,96.26,112.85z"/>
	<path d="M203.28,36.96c-3.72-5.27-9.28-8.68-15.66-9.62L30.5,4.3c-7.8-1.14-15.58,1.69-20.81,7.59c-5.23,5.9-7.13,13.96-5.07,21.57
		l23.96,88.46c2.75,10.14,12,17.21,22.5,17.21h120.2c11.09,0,20.71-7.9,22.86-18.78l12.97-65.42
		C208.36,48.61,207,42.23,203.28,36.96z M72.4,111.38l-5.16,12.75c-0.18,0.44-0.61,0.73-1.09,0.73c-0.02,0-0.03,0-0.05,0
		c-0.5-0.02-0.92-0.35-1.07-0.82l-4.01-12.75c-0.2-0.62,0.15-1.28,0.77-1.47c0.62-0.19,1.28,0.15,1.47,0.77l3.03,9.63l3.93-9.71
		c0.24-0.6,0.93-0.89,1.53-0.65C72.35,110.09,72.64,110.78,72.4,111.38z M82.26,115.36c0.65,0,1.18,0.53,1.18,1.18
		c0,0.65-0.53,1.18-1.18,1.18h-4.85v4.8h7.03c0.65,0,1.18,0.53,1.18,1.17c0,0.65-0.53,1.18-1.18,1.18h-8.21
		c-0.65,0-1.18-0.53-1.18-1.18v-12.75c0-0.65,0.53-1.18,1.18-1.18h8.21c0.65,0,1.18,0.53,1.18,1.18s-0.53,1.18-1.18,1.18h-7.03v3.25
		H82.26z M99.17,125.12c-0.18,0.1-0.37,0.14-0.56,0.14c-0.42,0-0.82-0.22-1.03-0.62l-3.19-5.88c-0.07,0-0.15,0.01-0.22,0.01h-3.38
		v5.31c0,0.65-0.53,1.18-1.17,1.18c-0.65,0-1.18-0.53-1.18-1.18v-12.75c0-0.06,0.01-0.12,0.02-0.17c-0.01-0.06-0.02-0.11-0.02-0.17
		c0-0.65,0.53-1.17,1.18-1.17h4.55c1.97,0,3.13,0.75,3.76,1.38c0.77,0.77,1.22,1.85,1.25,2.99c0,0.02,0.01,0.04,0.01,0.07
		c0,0.02,0,0.03,0,0.05s0,0.03,0,0.05c0,0.02-0.01,0.04-0.01,0.07c-0.04,1.13-0.48,2.21-1.25,2.99c-0.27,0.28-0.65,0.58-1.16,0.82
		l2.88,5.3C99.95,124.09,99.74,124.81,99.17,125.12z M115.72,123.69c0,0.65-0.53,1.18-1.18,1.18c-0.65,0-1.17-0.53-1.17-1.18v-7.27
		l-3.06,6.79c-0.19,0.42-0.61,0.69-1.07,0.69c-0.46,0-0.88-0.27-1.07-0.69l-3.06-6.79v7.27c0,0.65-0.53,1.18-1.17,1.18
		c-0.65,0-1.18-0.53-1.18-1.18v-12.75c0-0.55,0.39-1.03,0.93-1.15c0.54-0.12,1.09,0.16,1.32,0.67l4.23,9.4l4.23-9.4
		c0.23-0.51,0.78-0.78,1.32-0.67c0.54,0.12,0.93,0.59,0.93,1.15V123.69z M125.24,124.69c-3.56,0-6.45-3.31-6.45-7.38
		s2.89-7.38,6.45-7.38c3.56,0,6.45,3.31,6.45,7.38S128.8,124.69,125.24,124.69z M145.57,123.69c0,0.52-0.34,0.98-0.84,1.12
		c-0.11,0.03-0.23,0.05-0.34,0.05c-0.39,0-0.76-0.19-0.98-0.53l-6.3-9.5v8.85c0,0.65-0.53,1.18-1.17,1.18
		c-0.65,0-1.18-0.53-1.18-1.18v-12.75c0-0.52,0.34-0.98,0.84-1.12c0.5-0.15,1.03,0.04,1.32,0.48l6.3,9.5v-8.85
		c0-0.65,0.53-1.18,1.17-1.18c0.65,0,1.18,0.53,1.18,1.18V123.69z M159.02,112.21h-3.76v11.57c0,0.65-0.53,1.18-1.18,1.18
		c-0.65,0-1.17-0.53-1.17-1.18v-11.57h-3.76c-0.65,0-1.18-0.53-1.18-1.18c0-0.65,0.53-1.18,1.18-1.18h9.87
		c0.65,0,1.17,0.53,1.17,1.18C160.19,111.68,159.67,112.21,159.02,112.21z M202.36,54l-8.83,44.54H27.26L9.29,32.19
		C7.66,26.16,9.16,19.77,13.3,15.1c4.15-4.67,10.31-6.92,16.49-6.01l157.13,23.05c5.05,0.74,9.46,3.45,12.41,7.62
		C202.28,43.93,203.35,48.99,202.36,54z"/>
</g>
</svg>
